<?xml version="1.0" encoding="UTF-8" standalone="no"?>
<svg
   xmlns:dc="http://purl.org/dc/elements/1.1/"
   xmlns:cc="http://creativecommons.org/ns#"
   xmlns:rdf="http://www.w3.org/1999/02/22-rdf-syntax-ns#"
   xmlns:svg="http://www.w3.org/2000/svg"
   xmlns="http://www.w3.org/2000/svg"
   version="1.1"
   id="svg2"
   viewBox="0 0 597.55931 121.15218"
   height="34.191837mm"
   width="168.64452mm">
  <defs
     id="defs4" />
  <metadata
     id="metadata7">
    <rdf:RDF>
      <cc:Work
         rdf:about="">
        <dc:format>image/svg+xml</dc:format>
        <dc:type
           rdf:resource="http://purl.org/dc/dcmitype/StillImage" />
        <dc:title></dc:title>
      </cc:Work>
    </rdf:RDF>
  </metadata>
  <g
     transform="translate(-18.799592,-340.07619)"
     id="layer1">
    <g
       id="g4258">
      <g
         id="g4220">
        <g
           transform="matrix(0.39801118,0,0,0.39801118,98.630416,289.98091)"
           id="g4143">
          <path
             style="opacity:1;fill:#bd2525;fill-opacity:1;stroke:none;stroke-width:12;stroke-linecap:round;stroke-linejoin:round;stroke-miterlimit:4;stroke-dasharray:none;stroke-opacity:1"
             id="path4248"
             d="m 113.00001,683.98251 -216.8133,-89.807 -89.80701,-216.81329 89.807,-216.81329 216.81329,-89.807017 216.8133,89.806997 89.80701,216.81329 -89.807,216.8133 z"
             transform="matrix(0.20560297,0.49636949,-0.49636949,0.20560297,115.70059,144.38443)" />
          <path
             d="m -74.773254,209.31713 a 97,37.026157 59.323504 0 1 24.82761,34.51051 97,37.026157 59.323504 0 1 18.36941,38.35192 43.680822,133.46772 59.290708 0 0 65.61634,-88.2281 43.680822,133.46772 59.290708 0 0 -108.81336,15.36567 z m 107.23266,-14.5281 -82.44984,49.06924 m 19.21383,105.7047 34.6846603,55.84563 M -49.945484,243.82825 a 97,37.026157 59.323504 0 1 17.64366,102.31636 97,37.026157 59.323504 0 1 -81.333216,-64.53559 97,37.026157 59.323504 0 1 -17.64367,-102.31636 97,37.026157 59.323504 0 1 81.333226,64.53559 z m -81.333876,-64.53628 a 97,37.026157 59.323505 0 1 81.334236,64.53499 97,37.026157 59.323505 0 1 17.64265,102.31697 97,72.683998 59.323505 0 0 13.02392,-120.50843 97,72.683998 59.323505 0 0 -112.000806,-46.34353 z m 0,0 a 97,37.026157 59.323505 0 1 81.334236,64.53499 97,37.026157 59.323505 0 1 17.64265,102.31697 97,108.342 59.323505 0 0 43.69218,-138.7009 97,108.342 59.323505 0 0 -142.669066,-28.15106 z m -0.0481,0.0275 a 96.999162,34.578496 59.381123 0 1 0.0307,-0.0131 97,37.026157 59.323504 0 1 0.0176,-0.0125 97,37.026157 59.323504 0 1 81.333456,64.53384 97,37.026157 59.323504 0 1 17.78794,102.21195 96.998886,134.57615 59.177033 0 0 65.94257,-152.01067 96.998886,134.57615 59.177033 0 0 -165.112306,-14.70947 z m 98.933456,166.86559 a 96.999162,34.578496 59.381123 0 1 -0.0855,0.0629 96.998886,134.57615 59.177033 0 0 0.12285,-0.0802 97,37.026157 59.323504 0 1 -0.0375,0.017 z"
             style="opacity:1;fill:none;fill-opacity:1;stroke:#ffffff;stroke-width:12;stroke-linecap:round;stroke-linejoin:round;stroke-miterlimit:4;stroke-dasharray:none;stroke-opacity:1"
             id="ellipse4214" />
        </g>
        <g
           id="flowRoot4147"
           style="font-style:normal;font-variant:normal;font-weight:normal;font-stretch:condensed;font-size:90px;line-height:125%;font-family:'Nimbus Sans L';-inkscape-font-specification:'Nimbus Sans L, Condensed';text-align:start;letter-spacing:0px;word-spacing:0px;writing-mode:lr-tb;text-anchor:start;fill:#000000;fill-opacity:1;stroke:none;stroke-width:1px;stroke-linecap:butt;stroke-linejoin:miter;stroke-opacity:1"
           transform="translate(-24,10.470488)">
          <path
             id="path4194"
             d="m 178.76578,394.5468 16.56,0 c 9.54,0 15.75,-7.56 15.75,-19.08 0,-10.98 -6.3,-18.27 -15.75,-18.27 l -23.76,0 0,64.62 7.2,0 0,-27.27 z m 0,-29.88 14.4,0 c 7.11,0 10.53,3.6 10.53,11.07 0,7.56 -3.6,11.34 -10.8,11.34 l -14.13,0 0,-22.41 z" />
          <path
             id="path4196"
             d="m 225.64453,357.1968 -6.48,0 0,64.62 6.48,0 0,-25.65 c 0,-9.99 3.96,-15.75 10.98,-15.75 5.31,0 7.56,3.15 7.56,10.62 l 0,30.78 6.48,0 0,-32.04 c 0,-10.35 -4.86,-16.38 -13.05,-16.38 -5.13,0 -8.19,1.98 -11.97,7.83 l 0,-24.03 z" />
          <path
             id="path4198"
             d="m 276.14156,373.3968 c -10.89,0 -18.18,9.99 -18.18,24.84 0,14.67 7.38,24.84 17.91,24.84 10.62,0 17.91,-10.17 17.91,-24.84 0,-14.49 -7.29,-24.84 -17.64,-24.84 z m -0.09,6.93 c 6.57,0 10.98,7.11 10.98,17.91 0,10.89 -4.41,17.91 -11.16,17.91 -6.75,0 -11.16,-7.02 -11.16,-17.91 0,-10.98 4.32,-17.91 11.34,-17.91 z" />
          <path
             id="path4200"
             d="m 306.74859,421.8168 0,-6.12 c 2.79,5.4 5.85,7.47 10.89,7.47 10.17,0 16.83,-10.26 16.83,-26.01 0,-14.22 -6.39,-23.76 -15.84,-23.76 -4.86,0 -8.19,2.16 -11.52,7.47 l 0,-23.67 -6.48,0 0,64.62 6.12,0 z m 10.71,-41.4 c 6.75,0 10.26,5.85 10.26,17.28 0,11.7 -3.78,18.54 -10.35,18.54 -2.7,0 -5.31,-1.35 -7.11,-3.6 -2.34,-2.97 -3.42,-7.02 -3.42,-13.23 0,-12.42 3.69,-18.99 10.62,-18.99 z" />
          <path
             id="path4202"
             d="m 348.69562,374.7468 -6.48,0 0,47.07 6.48,0 0,-47.07 z m 0,-8.55 0,-9 -6.48,0 0,9 6.48,0 z" />
          <path
             id="path4204"
             d="m 364.14328,389.0568 c 0.9,-6.57 3.42,-9.09 9.09,-9.09 5.85,0 8.91,2.7 8.91,7.83 0,3.42 -0.99,5.04 -3.42,5.4 l -10.71,1.62 c -7.47,1.17 -11.7,6.39 -11.7,14.58 0,8.28 4.86,13.77 12.33,13.77 5.49,0 9.45,-2.25 13.68,-7.65 0.45,5.13 2.25,7.2 6.66,7.2 0.99,0 1.71,-0.18 2.97,-0.63 0.45,-0.18 0.54,-0.18 0.81,-0.27 l 0,-5.76 c -1.35,0.27 -1.71,0.36 -2.25,0.36 -1.35,0 -2.07,-0.99 -2.07,-2.79 l 0,-27.09 c 0,-8.19 -5.58,-13.14 -14.76,-13.14 -6.03,0 -10.62,2.16 -13.14,6.21 -1.53,2.52 -2.07,4.77 -2.34,9.45 l 5.94,0 z m 17.82,16.47 c 0,5.94 -5.49,11.07 -11.97,11.07 -4.41,0 -6.93,-2.88 -6.93,-7.92 0,-4.68 2.34,-6.93 8.28,-7.92 7.38,-1.26 9.27,-1.71 10.62,-2.97 l 0,7.74 z" />
          <path
             id="path4206"
             d="m 400.06031,421.8168 22.86,0 c 10.8,0 17.91,-7.65 17.91,-19.26 0,-7.92 -2.61,-12.15 -9.54,-15.57 4.86,-3.15 7.02,-7.29 7.02,-13.5 0,-9.81 -5.94,-16.29 -14.94,-16.29 l -23.31,0 0,64.62 z m 7.2,-57.15 12.96,0 c 7.47,0 10.89,3.06 10.89,9.63 0,7.02 -3.51,10.26 -10.98,10.26 l -12.87,0 0,-19.89 z m 0,26.91 14.04,0 c 8.19,0 12.33,3.69 12.33,10.98 0,7.47 -4.05,11.79 -11.07,11.79 l -15.3,0 0,-22.77 z" />
          <path
             id="path4208"
             d="m 455.21906,357.1968 -6.48,0 0,64.62 6.48,0 0,-64.62 z" />
          <path
             id="path4210"
             d="m 480.92672,373.3968 c -10.89,0 -18.18,9.99 -18.18,24.84 0,14.67 7.38,24.84 17.91,24.84 10.62,0 17.91,-10.17 17.91,-24.84 0,-14.49 -7.29,-24.84 -17.64,-24.84 z m -0.09,6.93 c 6.57,0 10.98,7.11 10.98,17.91 0,10.89 -4.41,17.91 -11.16,17.91 -6.75,0 -11.16,-7.02 -11.16,-17.91 0,-10.98 4.32,-17.91 11.34,-17.91 z" />
          <path
             id="path4212"
             d="m 536.28375,390.5868 c -1.17,-11.52 -6.03,-17.19 -14.67,-17.19 -11.16,0 -18.27,9.99 -18.27,25.74 0,14.67 6.75,24.03 17.28,24.03 8.82,0 14.13,-6.03 15.66,-18 l -6.3,0 c -1.35,7.38 -4.5,11.07 -9.45,11.07 -6.57,0 -10.26,-6.39 -10.26,-17.73 0,-11.43 3.96,-18.09 10.71,-18.09 5.13,0 7.92,3.06 9,10.17 l 6.3,0 z" />
          <path
             id="path4214"
             d="m 559.33781,392.2968 14.76,-17.55 -8.19,0 -16.65,19.89 0,-37.44 -6.3,0 0,64.62 6.3,0 0,-17.82 5.4,-5.94 11.97,23.76 8.37,0 -15.66,-29.52 z" />
          <path
             id="path4216"
             d="m 605.97187,407.0568 c -0.63,5.31 -4.94999,9.18 -10.17,9.18 -3.77999,0 -6.84,-1.71 -8.73,-4.95 -1.53,-2.61 -2.06999,-5.13 -2.25,-10.44 l 28.17001,0 c -0.27001,-9.27 -1.08001,-13.68 -3.33001,-18.36 -2.97,-6.21 -7.28999,-9.09 -13.5,-9.09 -11.15999,0 -18.26999,9.99 -18.26999,25.74 0,14.85 6.75,24.03 17.73,24.03 8.91,0 15.12,-5.94 16.82999,-16.11 l -6.48,0 z m -21.15,-12.51 c 0.36,-8.46 4.86,-14.13 11.07001,-14.13 3.32999,0 6.12,1.62 7.91999,4.5 1.44001,2.43 2.07001,4.77 2.43001,9.63 l -21.42001,0 z" />
          <path
             id="path4218"
             d="m 640.35891,381.7668 0,-8.1 c -0.63,-0.18 -1.08,-0.27 -1.71,-0.27 -4.5,0 -7.56,2.61 -10.98,9.36 l 0,-8.01 -6.12,0 0,47.07 6.48,0 0,-27.45 c 0,-7.29 4.14,-12.6 9.9,-12.6 l 2.43,0 z" />
        </g>
      </g>
      <g
         transform="matrix(0.39801118,0,0,0.39801118,98.630416,289.98091)"
         id="g4311">
        <path
           style="opacity:1;fill:#bd2525;fill-opacity:1;stroke:none;stroke-width:12;stroke-linecap:round;stroke-linejoin:round;stroke-miterlimit:4;stroke-dasharray:none;stroke-opacity:1"
           id="path4313"
           d="m 113.00001,683.98251 -216.8133,-89.807 -89.80701,-216.81329 89.807,-216.81329 216.81329,-89.807017 216.8133,89.806997 89.80701,216.81329 -89.807,216.8133 z"
           transform="matrix(0.20560297,0.49636949,-0.49636949,0.20560297,115.70059,144.38443)" />
        <path
           d="m -74.773254,209.31713 a 97,37.026157 59.323504 0 1 24.82761,34.51051 97,37.026157 59.323504 0 1 18.36941,38.35192 43.680822,133.46772 59.290708 0 0 65.61634,-88.2281 43.680822,133.46772 59.290708 0 0 -108.81336,15.36567 z m 107.23266,-14.5281 -82.44984,49.06924 m 19.21383,105.7047 34.6846603,55.84563 M -49.945484,243.82825 a 97,37.026157 59.323504 0 1 17.64366,102.31636 97,37.026157 59.323504 0 1 -81.333216,-64.53559 97,37.026157 59.323504 0 1 -17.64367,-102.31636 97,37.026157 59.323504 0 1 81.333226,64.53559 z m -81.333876,-64.53628 a 97,37.026157 59.323505 0 1 81.334236,64.53499 97,37.026157 59.323505 0 1 17.64265,102.31697 97,72.683998 59.323505 0 0 13.02392,-120.50843 97,72.683998 59.323505 0 0 -112.000806,-46.34353 z m 0,0 a 97,37.026157 59.323505 0 1 81.334236,64.53499 97,37.026157 59.323505 0 1 17.64265,102.31697 97,108.342 59.323505 0 0 43.69218,-138.7009 97,108.342 59.323505 0 0 -142.669066,-28.15106 z m -0.0481,0.0275 a 96.999162,34.578496 59.381123 0 1 0.0307,-0.0131 97,37.026157 59.323504 0 1 0.0176,-0.0125 97,37.026157 59.323504 0 1 81.333456,64.53384 97,37.026157 59.323504 0 1 17.78794,102.21195 96.998886,134.57615 59.177033 0 0 65.94257,-152.01067 96.998886,134.57615 59.177033 0 0 -165.112306,-14.70947 z m 98.933456,166.86559 a 96.999162,34.578496 59.381123 0 1 -0.0855,0.0629 96.998886,134.57615 59.177033 0 0 0.12285,-0.0802 97,37.026157 59.323504 0 1 -0.0375,0.017 z"
           style="opacity:1;fill:none;fill-opacity:1;stroke:#ffffff;stroke-width:12;stroke-linecap:round;stroke-linejoin:round;stroke-miterlimit:4;stroke-dasharray:none;stroke-opacity:1"
           id="path4315" />
      </g>
      <g
         id="g4317"
         style="font-style:normal;font-variant:normal;font-weight:normal;font-stretch:condensed;font-size:90px;line-height:125%;font-family:'Nimbus Sans L';-inkscape-font-specification:'Nimbus Sans L, Condensed';text-align:start;letter-spacing:0px;word-spacing:0px;writing-mode:lr-tb;text-anchor:start;fill:#ffffff;fill-opacity:1;stroke:none;stroke-width:1px;stroke-linecap:butt;stroke-linejoin:miter;stroke-opacity:1"
         transform="translate(-24,10.470488)">
        <path
           id="path4319"
           d="m 178.76578,394.5468 16.56,0 c 9.54,0 15.75,-7.56 15.75,-19.08 0,-10.98 -6.3,-18.27 -15.75,-18.27 l -23.76,0 0,64.62 7.2,0 0,-27.27 z m 0,-29.88 14.4,0 c 7.11,0 10.53,3.6 10.53,11.07 0,7.56 -3.6,11.34 -10.8,11.34 l -14.13,0 0,-22.41 z"
           style="fill:#ffffff;fill-opacity:1" />
        <path
           id="path4321"
           d="m 225.64453,357.1968 -6.48,0 0,64.62 6.48,0 0,-25.65 c 0,-9.99 3.96,-15.75 10.98,-15.75 5.31,0 7.56,3.15 7.56,10.62 l 0,30.78 6.48,0 0,-32.04 c 0,-10.35 -4.86,-16.38 -13.05,-16.38 -5.13,0 -8.19,1.98 -11.97,7.83 l 0,-24.03 z"
           style="fill:#ffffff;fill-opacity:1" />
        <path
           id="path4323"
           d="m 276.14156,373.3968 c -10.89,0 -18.18,9.99 -18.18,24.84 0,14.67 7.38,24.84 17.91,24.84 10.62,0 17.91,-10.17 17.91,-24.84 0,-14.49 -7.29,-24.84 -17.64,-24.84 z m -0.09,6.93 c 6.57,0 10.98,7.11 10.98,17.91 0,10.89 -4.41,17.91 -11.16,17.91 -6.75,0 -11.16,-7.02 -11.16,-17.91 0,-10.98 4.32,-17.91 11.34,-17.91 z"
           style="fill:#ffffff;fill-opacity:1" />
        <path
           id="path4325"
           d="m 306.74859,421.8168 0,-6.12 c 2.79,5.4 5.85,7.47 10.89,7.47 10.17,0 16.83,-10.26 16.83,-26.01 0,-14.22 -6.39,-23.76 -15.84,-23.76 -4.86,0 -8.19,2.16 -11.52,7.47 l 0,-23.67 -6.48,0 0,64.62 6.12,0 z m 10.71,-41.4 c 6.75,0 10.26,5.85 10.26,17.28 0,11.7 -3.78,18.54 -10.35,18.54 -2.7,0 -5.31,-1.35 -7.11,-3.6 -2.34,-2.97 -3.42,-7.02 -3.42,-13.23 0,-12.42 3.69,-18.99 10.62,-18.99 z"
           style="fill:#ffffff;fill-opacity:1" />
        <path
           id="path4327"
           d="m 348.69562,374.7468 -6.48,0 0,47.07 6.48,0 0,-47.07 z m 0,-8.55 0,-9 -6.48,0 0,9 6.48,0 z"
           style="fill:#ffffff;fill-opacity:1" />
        <path
           id="path4329"
           d="m 364.14328,389.0568 c 0.9,-6.57 3.42,-9.09 9.09,-9.09 5.85,0 8.91,2.7 8.91,7.83 0,3.42 -0.99,5.04 -3.42,5.4 l -10.71,1.62 c -7.47,1.17 -11.7,6.39 -11.7,14.58 0,8.28 4.86,13.77 12.33,13.77 5.49,0 9.45,-2.25 13.68,-7.65 0.45,5.13 2.25,7.2 6.66,7.2 0.99,0 1.71,-0.18 2.97,-0.63 0.45,-0.18 0.54,-0.18 0.81,-0.27 l 0,-5.76 c -1.35,0.27 -1.71,0.36 -2.25,0.36 -1.35,0 -2.07,-0.99 -2.07,-2.79 l 0,-27.09 c 0,-8.19 -5.58,-13.14 -14.76,-13.14 -6.03,0 -10.62,2.16 -13.14,6.21 -1.53,2.52 -2.07,4.77 -2.34,9.45 l 5.94,0 z m 17.82,16.47 c 0,5.94 -5.49,11.07 -11.97,11.07 -4.41,0 -6.93,-2.88 -6.93,-7.92 0,-4.68 2.34,-6.93 8.28,-7.92 7.38,-1.26 9.27,-1.71 10.62,-2.97 l 0,7.74 z"
           style="fill:#ffffff;fill-opacity:1" />
        <path
           id="path4331"
           d="m 400.06031,421.8168 22.86,0 c 10.8,0 17.91,-7.65 17.91,-19.26 0,-7.92 -2.61,-12.15 -9.54,-15.57 4.86,-3.15 7.02,-7.29 7.02,-13.5 0,-9.81 -5.94,-16.29 -14.94,-16.29 l -23.31,0 0,64.62 z m 7.2,-57.15 12.96,0 c 7.47,0 10.89,3.06 10.89,9.63 0,7.02 -3.51,10.26 -10.98,10.26 l -12.87,0 0,-19.89 z m 0,26.91 14.04,0 c 8.19,0 12.33,3.69 12.33,10.98 0,7.47 -4.05,11.79 -11.07,11.79 l -15.3,0 0,-22.77 z"
           style="fill:#ffffff;fill-opacity:1" />
        <path
           id="path4333"
           d="m 455.21906,357.1968 -6.48,0 0,64.62 6.48,0 0,-64.62 z"
           style="fill:#ffffff;fill-opacity:1" />
        <path
           id="path4335"
           d="m 480.92672,373.3968 c -10.89,0 -18.18,9.99 -18.18,24.84 0,14.67 7.38,24.84 17.91,24.84 10.62,0 17.91,-10.17 17.91,-24.84 0,-14.49 -7.29,-24.84 -17.64,-24.84 z m -0.09,6.93 c 6.57,0 10.98,7.11 10.98,17.91 0,10.89 -4.41,17.91 -11.16,17.91 -6.75,0 -11.16,-7.02 -11.16,-17.91 0,-10.98 4.32,-17.91 11.34,-17.91 z"
           style="fill:#ffffff;fill-opacity:1" />
        <path
           id="path4337"
           d="m 536.28375,390.5868 c -1.17,-11.52 -6.03,-17.19 -14.67,-17.19 -11.16,0 -18.27,9.99 -18.27,25.74 0,14.67 6.75,24.03 17.28,24.03 8.82,0 14.13,-6.03 15.66,-18 l -6.3,0 c -1.35,7.38 -4.5,11.07 -9.45,11.07 -6.57,0 -10.26,-6.39 -10.26,-17.73 0,-11.43 3.96,-18.09 10.71,-18.09 5.13,0 7.92,3.06 9,10.17 l 6.3,0 z"
           style="fill:#ffffff;fill-opacity:1" />
        <path
           id="path4339"
           d="m 559.33781,392.2968 14.76,-17.55 -8.19,0 -16.65,19.89 0,-37.44 -6.3,0 0,64.62 6.3,0 0,-17.82 5.4,-5.94 11.97,23.76 8.37,0 -15.66,-29.52 z"
           style="fill:#ffffff;fill-opacity:1" />
        <path
           id="path4341"
           d="m 605.97187,407.0568 c -0.63,5.31 -4.94999,9.18 -10.17,9.18 -3.77999,0 -6.84,-1.71 -8.73,-4.95 -1.53,-2.61 -2.06999,-5.13 -2.25,-10.44 l 28.17001,0 c -0.27001,-9.27 -1.08001,-13.68 -3.33001,-18.36 -2.97,-6.21 -7.28999,-9.09 -13.5,-9.09 -11.15999,0 -18.26999,9.99 -18.26999,25.74 0,14.85 6.75,24.03 17.73,24.03 8.91,0 15.12,-5.94 16.82999,-16.11 l -6.48,0 z m -21.15,-12.51 c 0.36,-8.46 4.86,-14.13 11.07001,-14.13 3.32999,0 6.12,1.62 7.91999,4.5 1.44001,2.43 2.07001,4.77 2.43001,9.63 l -21.42001,0 z"
           style="fill:#ffffff;fill-opacity:1" />
        <path
           id="path4343"
           d="m 640.35891,381.7668 0,-8.1 c -0.63,-0.18 -1.08,-0.27 -1.71,-0.27 -4.5,0 -7.56,2.61 -10.98,9.36 l 0,-8.01 -6.12,0 0,47.07 6.48,0 0,-27.45 c 0,-7.29 4.14,-12.6 9.9,-12.6 l 2.43,0 z"
           style="fill:#ffffff;fill-opacity:1" />
      </g>
    </g>
  </g>
</svg>
